<svg xmlns="http://www.w3.org/2000/svg" viewBox="0 0 512 512">
  <defs>
    <linearGradient id="bg" x1="96" x2="416" y1="72" y2="440" gradientUnits="userSpaceOnUse">
      <stop offset="0" stop-color="#132230"/>
      <stop offset="1" stop-color="#050b12"/>
    </linearGradient>
    <linearGradient id="metal" x1="164" x2="381" y1="112" y2="422" gradientUnits="userSpaceOnUse">
      <stop offset="0" stop-color="#efe7d6"/>
      <stop offset="0.45" stop-color="#c0b49f"/>
      <stop offset="1" stop-color="#8b7c67"/>
    </linearGradient>
    <linearGradient id="accent" x1="186" x2="326" y1="118" y2="178" gradientUnits="userSpaceOnUse">
      <stop offset="0" stop-color="#d8b15a"/>
      <stop offset="1" stop-color="#8f6a27"/>
    </linearGradient>
    <radialGradient id="glow" cx="0" cy="0" r="1" gradientTransform="translate(256 178) rotate(90) scale(190)" gradientUnits="userSpaceOnUse">
      <stop offset="0" stop-color="#d7b66d" stop-opacity="0.26"/>
      <stop offset="1" stop-color="#d7b66d" stop-opacity="0"/>
    </radialGradient>
  </defs>
  <rect width="512" height="512" rx="128" fill="#04080d"/>
  <rect width="512" height="512" rx="128" fill="url(#bg)"/>
  <circle cx="256" cy="178" r="190" fill="url(#glow)"/>
  <path d="M256 118 326 154 310 178 256 150 202 178 186 154Z" fill="url(#accent)"/>
  <circle cx="122" cy="128" r="6" fill="#d7b66d" opacity="0.7"/>
  <circle cx="390" cy="154" r="5" fill="#d7b66d" opacity="0.55"/>
  <circle cx="358" cy="103" r="4" fill="#efe7d6" opacity="0.5"/>
  <path d="M164 112h92c68 0 113 28 113 84 0 29-13 51-40 65 35 14 52 40 52 76 0 57-43 85-128 85H164V112Z" fill="url(#metal)"/>
  <path d="M220 166h34c34 0 53 12 53 36 0 25-19 39-56 39h-31v-75Z" fill="#071018"/>
  <path d="M220 285h49c39 0 60 14 60 41 0 29-22 44-66 44h-43v-85Z" fill="#071018"/>
  <path d="M126 360c41-23 82-35 122-35 4 0 8 0 12 1v92c-52 0-96 12-134 37v-95Z" fill="#10202c"/>
  <path d="M386 360c-41-23-82-35-122-35-4 0-8 0-12 1v92c52 0 96 12 134 37v-95Z" fill="#10202c"/>
  <path d="M256 325v120" stroke="#d8b15a" stroke-linecap="round" stroke-width="8"/>
  <path d="M142 386c35-18 72-27 110-27" stroke="#d8b15a" stroke-linecap="round" stroke-width="8"/>
  <path d="M370 386c-35-18-72-27-110-27" stroke="#d8b15a" stroke-linecap="round" stroke-width="8"/>
</svg>
